<mxfile host="app.diagrams.net" agent="Mozilla/5.0 (Windows NT 10.0; Win64; x64) AppleWebKit/537.36 (KHTML, like Gecko) Chrome/140.0.0.0 Safari/537.36" version="28.2.3">
  <diagram name="Página-1" id="xxQU4-nbl_ospjVOprH_">
    <mxGraphModel grid="1" page="1" gridSize="10" guides="1" tooltips="1" connect="1" arrows="1" fold="1" pageScale="1" pageWidth="827" pageHeight="1169" math="0" shadow="0">
      <root>
        <mxCell id="0" />
        <mxCell id="1" parent="0" />
        <mxCell id="dRgMbz7djvlBiyrLqUlQ-2" value="Exercício 3 - Loja online" style="text;html=1;align=center;verticalAlign=middle;resizable=0;points=[];autosize=1;strokeColor=#B09500;fillColor=#e3c800;fontColor=#000000;fontFamily=Times New Roman;" vertex="1" parent="1">
          <mxGeometry x="344" y="40" width="140" height="30" as="geometry" />
        </mxCell>
        <mxCell id="dRgMbz7djvlBiyrLqUlQ-19" value="" style="edgeStyle=orthogonalEdgeStyle;rounded=0;orthogonalLoop=1;jettySize=auto;html=1;" edge="1" parent="1" source="dRgMbz7djvlBiyrLqUlQ-5" target="dRgMbz7djvlBiyrLqUlQ-11">
          <mxGeometry relative="1" as="geometry" />
        </mxCell>
        <mxCell id="dRgMbz7djvlBiyrLqUlQ-20" value="" style="edgeStyle=orthogonalEdgeStyle;rounded=0;orthogonalLoop=1;jettySize=auto;html=1;" edge="1" parent="1" source="dRgMbz7djvlBiyrLqUlQ-5" target="dRgMbz7djvlBiyrLqUlQ-12">
          <mxGeometry relative="1" as="geometry" />
        </mxCell>
        <mxCell id="dRgMbz7djvlBiyrLqUlQ-24" style="edgeStyle=orthogonalEdgeStyle;rounded=0;orthogonalLoop=1;jettySize=auto;html=1;exitX=0;exitY=1;exitDx=0;exitDy=0;entryX=0.5;entryY=0;entryDx=0;entryDy=0;" edge="1" parent="1" source="dRgMbz7djvlBiyrLqUlQ-5" target="dRgMbz7djvlBiyrLqUlQ-13">
          <mxGeometry relative="1" as="geometry" />
        </mxCell>
        <mxCell id="dRgMbz7djvlBiyrLqUlQ-34" value="" style="edgeStyle=orthogonalEdgeStyle;rounded=0;orthogonalLoop=1;jettySize=auto;html=1;" edge="1" parent="1" source="dRgMbz7djvlBiyrLqUlQ-5" target="dRgMbz7djvlBiyrLqUlQ-27">
          <mxGeometry relative="1" as="geometry" />
        </mxCell>
        <mxCell id="dRgMbz7djvlBiyrLqUlQ-36" value="1" style="edgeLabel;html=1;align=center;verticalAlign=middle;resizable=0;points=[];" connectable="0" vertex="1" parent="dRgMbz7djvlBiyrLqUlQ-34">
          <mxGeometry x="-0.0187" y="-2" relative="1" as="geometry">
            <mxPoint y="-3" as="offset" />
          </mxGeometry>
        </mxCell>
        <mxCell id="dRgMbz7djvlBiyrLqUlQ-5" value="Cliente" style="whiteSpace=wrap;html=1;" vertex="1" parent="1">
          <mxGeometry x="220" y="440" width="120" height="60" as="geometry" />
        </mxCell>
        <mxCell id="dRgMbz7djvlBiyrLqUlQ-21" value="" style="edgeStyle=orthogonalEdgeStyle;rounded=0;orthogonalLoop=1;jettySize=auto;html=1;" edge="1" parent="1" source="dRgMbz7djvlBiyrLqUlQ-6" target="dRgMbz7djvlBiyrLqUlQ-8">
          <mxGeometry relative="1" as="geometry" />
        </mxCell>
        <mxCell id="dRgMbz7djvlBiyrLqUlQ-22" style="edgeStyle=orthogonalEdgeStyle;rounded=0;orthogonalLoop=1;jettySize=auto;html=1;exitX=1;exitY=0;exitDx=0;exitDy=0;entryX=0.5;entryY=1;entryDx=0;entryDy=0;" edge="1" parent="1" source="dRgMbz7djvlBiyrLqUlQ-6" target="dRgMbz7djvlBiyrLqUlQ-9">
          <mxGeometry relative="1" as="geometry" />
        </mxCell>
        <mxCell id="dRgMbz7djvlBiyrLqUlQ-23" style="edgeStyle=orthogonalEdgeStyle;rounded=0;orthogonalLoop=1;jettySize=auto;html=1;exitX=0;exitY=0;exitDx=0;exitDy=0;entryX=0.5;entryY=1;entryDx=0;entryDy=0;" edge="1" parent="1" source="dRgMbz7djvlBiyrLqUlQ-6" target="dRgMbz7djvlBiyrLqUlQ-10">
          <mxGeometry relative="1" as="geometry" />
        </mxCell>
        <mxCell id="dRgMbz7djvlBiyrLqUlQ-41" value="" style="edgeStyle=orthogonalEdgeStyle;rounded=0;orthogonalLoop=1;jettySize=auto;html=1;" edge="1" parent="1" source="dRgMbz7djvlBiyrLqUlQ-6" target="dRgMbz7djvlBiyrLqUlQ-38">
          <mxGeometry relative="1" as="geometry" />
        </mxCell>
        <mxCell id="dRgMbz7djvlBiyrLqUlQ-43" value="1" style="edgeLabel;html=1;align=center;verticalAlign=middle;resizable=0;points=[];" connectable="0" vertex="1" parent="dRgMbz7djvlBiyrLqUlQ-41">
          <mxGeometry x="-0.37" y="-2" relative="1" as="geometry">
            <mxPoint as="offset" />
          </mxGeometry>
        </mxCell>
        <mxCell id="dRgMbz7djvlBiyrLqUlQ-6" value="Produtos" style="whiteSpace=wrap;html=1;" vertex="1" parent="1">
          <mxGeometry x="374" y="190" width="120" height="60" as="geometry" />
        </mxCell>
        <mxCell id="dRgMbz7djvlBiyrLqUlQ-8" value="Nome" style="rounded=1;whiteSpace=wrap;html=1;arcSize=50;" vertex="1" parent="1">
          <mxGeometry x="384" y="100" width="100" height="50" as="geometry" />
        </mxCell>
        <mxCell id="dRgMbz7djvlBiyrLqUlQ-9" value="Preço" style="rounded=1;whiteSpace=wrap;html=1;arcSize=50;" vertex="1" parent="1">
          <mxGeometry x="530" y="100" width="100" height="50" as="geometry" />
        </mxCell>
        <mxCell id="dRgMbz7djvlBiyrLqUlQ-10" value="Quantidade" style="rounded=1;whiteSpace=wrap;html=1;arcSize=50;" vertex="1" parent="1">
          <mxGeometry x="230" y="100" width="100" height="50" as="geometry" />
        </mxCell>
        <mxCell id="dRgMbz7djvlBiyrLqUlQ-11" value="Indereço" style="rounded=1;whiteSpace=wrap;html=1;arcSize=50;" vertex="1" parent="1">
          <mxGeometry x="230" y="540" width="100" height="50" as="geometry" />
        </mxCell>
        <mxCell id="dRgMbz7djvlBiyrLqUlQ-12" value="CPF" style="rounded=1;whiteSpace=wrap;html=1;arcSize=50;" vertex="1" parent="1">
          <mxGeometry x="90" y="445" width="100" height="50" as="geometry" />
        </mxCell>
        <mxCell id="dRgMbz7djvlBiyrLqUlQ-13" value="Nome" style="rounded=1;whiteSpace=wrap;html=1;arcSize=50;" vertex="1" parent="1">
          <mxGeometry x="90" y="540" width="100" height="50" as="geometry" />
        </mxCell>
        <mxCell id="dRgMbz7djvlBiyrLqUlQ-17" value="" style="edgeStyle=orthogonalEdgeStyle;rounded=0;orthogonalLoop=1;jettySize=auto;html=1;" edge="1" parent="1" source="dRgMbz7djvlBiyrLqUlQ-14" target="dRgMbz7djvlBiyrLqUlQ-16">
          <mxGeometry relative="1" as="geometry" />
        </mxCell>
        <mxCell id="dRgMbz7djvlBiyrLqUlQ-18" value="" style="edgeStyle=orthogonalEdgeStyle;rounded=0;orthogonalLoop=1;jettySize=auto;html=1;" edge="1" parent="1" source="dRgMbz7djvlBiyrLqUlQ-14" target="dRgMbz7djvlBiyrLqUlQ-15">
          <mxGeometry relative="1" as="geometry" />
        </mxCell>
        <mxCell id="dRgMbz7djvlBiyrLqUlQ-30" value="" style="edgeStyle=orthogonalEdgeStyle;rounded=0;orthogonalLoop=1;jettySize=auto;html=1;" edge="1" parent="1" source="dRgMbz7djvlBiyrLqUlQ-14" target="dRgMbz7djvlBiyrLqUlQ-28">
          <mxGeometry relative="1" as="geometry" />
        </mxCell>
        <mxCell id="dRgMbz7djvlBiyrLqUlQ-32" value="1" style="edgeLabel;html=1;align=center;verticalAlign=middle;resizable=0;points=[];" connectable="0" vertex="1" parent="dRgMbz7djvlBiyrLqUlQ-30">
          <mxGeometry x="0.04" y="-2" relative="1" as="geometry">
            <mxPoint x="-4" y="4" as="offset" />
          </mxGeometry>
        </mxCell>
        <mxCell id="dRgMbz7djvlBiyrLqUlQ-14" value="Compra" style="whiteSpace=wrap;html=1;" vertex="1" parent="1">
          <mxGeometry x="570" y="370" width="120" height="60" as="geometry" />
        </mxCell>
        <mxCell id="dRgMbz7djvlBiyrLqUlQ-15" value="Data" style="rounded=1;whiteSpace=wrap;html=1;arcSize=50;" vertex="1" parent="1">
          <mxGeometry x="710" y="370" width="100" height="50" as="geometry" />
        </mxCell>
        <mxCell id="dRgMbz7djvlBiyrLqUlQ-16" value="Valor total" style="rounded=1;whiteSpace=wrap;html=1;arcSize=50;" vertex="1" parent="1">
          <mxGeometry x="580" y="470" width="100" height="50" as="geometry" />
        </mxCell>
        <mxCell id="dRgMbz7djvlBiyrLqUlQ-35" value="" style="edgeStyle=orthogonalEdgeStyle;rounded=0;orthogonalLoop=1;jettySize=auto;html=1;entryX=0;entryY=0.75;entryDx=0;entryDy=0;" edge="1" parent="1" source="dRgMbz7djvlBiyrLqUlQ-27" target="dRgMbz7djvlBiyrLqUlQ-14">
          <mxGeometry relative="1" as="geometry">
            <mxPoint x="570" y="470" as="targetPoint" />
          </mxGeometry>
        </mxCell>
        <mxCell id="dRgMbz7djvlBiyrLqUlQ-37" value="N" style="edgeLabel;html=1;align=center;verticalAlign=middle;resizable=0;points=[];" connectable="0" vertex="1" parent="dRgMbz7djvlBiyrLqUlQ-35">
          <mxGeometry x="0.0326" y="-1" relative="1" as="geometry">
            <mxPoint x="-3" as="offset" />
          </mxGeometry>
        </mxCell>
        <mxCell id="dRgMbz7djvlBiyrLqUlQ-27" value="Fazer" style="rhombus;whiteSpace=wrap;html=1;" vertex="1" parent="1">
          <mxGeometry x="404" y="430" width="80" height="80" as="geometry" />
        </mxCell>
        <mxCell id="dRgMbz7djvlBiyrLqUlQ-31" style="edgeStyle=orthogonalEdgeStyle;rounded=0;orthogonalLoop=1;jettySize=auto;html=1;exitX=0.5;exitY=0;exitDx=0;exitDy=0;entryX=1;entryY=0.5;entryDx=0;entryDy=0;" edge="1" parent="1" source="dRgMbz7djvlBiyrLqUlQ-28" target="dRgMbz7djvlBiyrLqUlQ-6">
          <mxGeometry relative="1" as="geometry" />
        </mxCell>
        <mxCell id="dRgMbz7djvlBiyrLqUlQ-33" value="N" style="edgeLabel;html=1;align=center;verticalAlign=middle;resizable=0;points=[];" connectable="0" vertex="1" parent="dRgMbz7djvlBiyrLqUlQ-31">
          <mxGeometry x="-0.181" y="-1" relative="1" as="geometry">
            <mxPoint as="offset" />
          </mxGeometry>
        </mxCell>
        <mxCell id="dRgMbz7djvlBiyrLqUlQ-28" value="Incluir" style="rhombus;whiteSpace=wrap;html=1;" vertex="1" parent="1">
          <mxGeometry x="590" y="250" width="80" height="80" as="geometry" />
        </mxCell>
        <mxCell id="dRgMbz7djvlBiyrLqUlQ-42" style="edgeStyle=orthogonalEdgeStyle;rounded=0;orthogonalLoop=1;jettySize=auto;html=1;exitX=0.5;exitY=1;exitDx=0;exitDy=0;entryX=0;entryY=0.25;entryDx=0;entryDy=0;" edge="1" parent="1" source="dRgMbz7djvlBiyrLqUlQ-38" target="dRgMbz7djvlBiyrLqUlQ-14">
          <mxGeometry relative="1" as="geometry">
            <Array as="points">
              <mxPoint x="434" y="385" />
            </Array>
          </mxGeometry>
        </mxCell>
        <mxCell id="dRgMbz7djvlBiyrLqUlQ-44" value="N" style="edgeLabel;html=1;align=center;verticalAlign=middle;resizable=0;points=[];" connectable="0" vertex="1" parent="dRgMbz7djvlBiyrLqUlQ-42">
          <mxGeometry x="0.1373" y="3" relative="1" as="geometry">
            <mxPoint y="3" as="offset" />
          </mxGeometry>
        </mxCell>
        <mxCell id="dRgMbz7djvlBiyrLqUlQ-38" value="Aparecer" style="rhombus;whiteSpace=wrap;html=1;" vertex="1" parent="1">
          <mxGeometry x="394" y="290" width="80" height="80" as="geometry" />
        </mxCell>
      </root>
    </mxGraphModel>
  </diagram>
</mxfile>
